<?xml version="1.0" encoding="utf-8"?>
<!-- Generator: Adobe Illustrator 21.1.0, SVG Export Plug-In . SVG Version: 6.00 Build 0)  -->
<svg version="1.1" id="Capa_1" xmlns="http://www.w3.org/2000/svg" xmlns:xlink="http://www.w3.org/1999/xlink" x="0px" y="0px"
	 viewBox="0 0 74 74" style="enable-background:new 0 0 74 74;" xml:space="preserve">
<style type="text/css">
	.st0{fill:url(#SVGID_1_);}
</style>
<title>Artboard 8</title>
<linearGradient id="SVGID_1_" gradientUnits="userSpaceOnUse" x1="5.897707e-03" y1="37" x2="74.0059" y2="37">
	<stop  offset="0" style="stop-color:#06B5FE"/>
	<stop  offset="1" style="stop-color:#00D2FF"/>
</linearGradient>
<path class="st0" d="M0.5,48.4c1,2.9,3.4,5.2,6.4,6.1c2.1,0.6,3.5,2.5,3.4,4.6c0,2.5,1,5,2.8,6.8c2.7,2.6,6.6,3.5,10.2,2.3
	c2.1-0.7,4.3,0,5.6,1.7c1.8,2.5,4.8,4,8,4c3.2,0,6.2-1.5,8-4c1.3-1.7,3.5-2.4,5.6-1.8c3.6,1.1,7.5,0.2,10.2-2.3
	c1.9-1.8,2.9-4.2,2.8-6.8c0-2.1,1.4-4,3.4-4.6c3.1-0.9,5.5-3.2,6.5-6.1c1-2.9,0.4-6.1-1.5-8.6c-1.3-1.7-1.3-4,0-5.7l0,0
	C75.3,30,74.4,24,70,20.9c-0.9-0.6-1.8-1.1-2.9-1.4c-2.1-0.6-3.5-2.5-3.4-4.6c0-2.6-1-5-2.9-6.8c-2.7-2.6-6.6-3.5-10.2-2.3
	C48.6,6.4,46.3,5.7,45,4c-1.9-2.5-4.8-4-8-4c-3.2,0-6.2,1.5-8,4c-1.3,1.7-3.5,2.4-5.6,1.8c-1-0.3-2.1-0.5-3.2-0.5l0,0
	c-2.6,0-5.2,1-7,2.9c-1.9,1.8-2.9,4.2-2.8,6.8c0,2.1-1.4,4-3.4,4.6c-3.1,0.9-5.5,3.2-6.5,6.1c-1,2.9-0.4,6.1,1.5,8.6
	c1.3,1.7,1.3,4,0,5.7C0,42.3-0.5,45.5,0.5,48.4z M5.9,31.3c-1.6-2.1-1.1-5.1,1.1-6.7c0.4-0.3,0.9-0.5,1.4-0.7c4.2-1.2,7-5,6.9-9.2
	c0-1.3,0.5-2.5,1.4-3.4c0.9-0.9,2.2-1.4,3.5-1.4l0,0c0.5,0,1.1,0.1,1.6,0.3c4.1,1.3,8.7-0.1,11.2-3.5c1.6-2.1,4.7-2.6,6.9-1.1
	C40.3,6,40.7,6.3,41,6.8c1.9,2.5,4.8,4,8,4c1.1,0,2.1-0.2,3.1-0.5c1.8-0.6,3.8-0.1,5.1,1.2c0.9,0.9,1.4,2.1,1.4,3.3
	c-0.1,4.2,2.7,7.9,6.9,9.2c2.6,0.8,4,3.5,3.2,6c-0.2,0.5-0.4,1-0.7,1.4l0,0c-2.6,3.4-2.6,8,0,11.3c1.6,2.1,1.2,5.1-1,6.7
	c-0.4,0.3-0.9,0.6-1.4,0.7c-4.2,1.2-7,5-6.9,9.2c0,1.3-0.5,2.5-1.4,3.4c-1.3,1.3-3.3,1.7-5.1,1.2c-4.1-1.3-8.7,0.1-11.2,3.5
	c-1.6,2.1-4.7,2.6-6.9,1.1c-0.4-0.3-0.8-0.7-1.1-1.1c-2.5-3.4-7.1-4.8-11.2-3.5c-1.8,0.6-3.8,0.1-5.1-1.2c-0.9-0.9-1.4-2.1-1.4-3.4
	c0.1-4.2-2.7-7.9-6.9-9.2c-2.6-0.8-4-3.5-3.2-6c0.2-0.5,0.4-1,0.7-1.4C8.5,39.3,8.6,34.7,5.9,31.3L5.9,31.3z M52,24.6
	c3.8-0.1,5.8,4.4,3,7L35.4,50.5c-1.2,1.2-3.2,1.2-4.4,0l-10-9.6c-4.1-3.8,2-9.7,5.9-5.7l5.5,5.3c0.4,0.4,1.1,0.4,1.5,0l15.1-14.6
	C49.9,25,50.9,24.6,52,24.6L52,24.6z"/>
</svg>
