<?xml version="1.0" encoding="utf-8"?>
<!-- Generator: Adobe Illustrator 21.1.0, SVG Export Plug-In . SVG Version: 6.00 Build 0)  -->
<svg version="1.1" xmlns="http://www.w3.org/2000/svg" xmlns:xlink="http://www.w3.org/1999/xlink" x="0px" y="0px"
	 viewBox="0 0 1072.9 332" style="enable-background:new 0 0 1072.9 332;" xml:space="preserve">
<style type="text/css">
	.st0{fill:#FFFFFF;}
</style>
<g id="Capa_2">
</g>
<g id="Capa_4">
	<path class="st0" d="M256.6,21.3C209.2,11.2,142.7,35.8,88,88.3c-49.7,47.6-76.9,105.8-75.4,151.8c-25.1-59-12.4-132.4,37.5-184.6
		C106.8-3.8,193.1-16.2,256.6,21.3z M315.1,84.5c6.7,47.5-20.7,111.5-74.5,163.1c-49.9,47.8-109.4,72.5-155.5,68.9
		c62.2,30.2,142.2,16,195.8-40.1C333,222,344.5,144.6,315.1,84.5z M292.8,43.6c-13.7-14.6-52.7-1.8-99,29.3
		c25-13.9,44.7-18.4,52.5-10.1c14.4,15.4-17.5,68.8-71.3,119.3c-53.8,50.5-109.1,79.1-123.5,63.7c-6.4-6.8-3.7-21.2,6.1-39.5
		c-25,36.7-34.9,67.2-23,79.8c20,21.3,94-15.7,165.4-82.8C271.2,136.5,312.8,64.9,292.8,43.6z"/>
	<g>
		<path class="st0" d="M376.7,239.8V92.2h65.2c6.8,0,13.1,1.4,18.8,4.3c5.7,2.8,10.7,6.6,14.9,11.2c4.2,4.6,7.4,9.9,9.8,15.8
			c2.4,5.9,3.5,11.8,3.5,17.8c0,9.6-2.4,18.3-7.2,26.1c-4.8,7.8-11.3,13.5-19.4,16.9l33.7,55.5h-32.2l-30.1-49.5h-28.3v49.5H376.7z
			 M405.3,165.2h35.9c2.6,0,5.1-0.6,7.4-1.9c2.3-1.2,4.3-2.9,5.9-5.1c1.7-2.1,3-4.7,3.9-7.6c1-2.9,1.5-6,1.5-9.4
			c0-3.5-0.6-6.6-1.7-9.6c-1.1-2.9-2.6-5.4-4.5-7.6c-1.9-2.1-4-3.8-6.4-5c-2.4-1.2-4.9-1.8-7.4-1.8h-34.7V165.2z"/>
		<path class="st0" d="M633.7,201.7c0,6.2-1.2,11.7-3.7,16.4c-2.5,4.7-5.9,8.7-10.3,11.8c-4.4,3.2-9.4,5.6-15.2,7.3
			c-5.8,1.7-11.9,2.5-18.4,2.5h-71.3V92.2h79c5.1,0,9.8,1.1,13.9,3.3c4.2,2.2,7.7,5.1,10.6,8.6c2.9,3.5,5.2,7.6,6.8,12.1
			c1.6,4.5,2.4,9,2.4,13.6c0,7.2-1.8,14-5.4,20.3c-3.6,6.3-8.9,11-15.8,14c8.4,2.5,15.1,7,20.1,13.4
			C631.2,184,633.7,192.1,633.7,201.7z M543.5,116.8V154h38.2c4.8,0,9-1.7,12.4-5c3.4-3.3,5.1-7.9,5.1-13.7c0-5.7-1.6-10.2-4.7-13.5
			c-3.1-3.3-7-5-11.5-5H543.5z M604.8,196.3c0-2.6-0.5-5.2-1.4-7.6c-0.9-2.4-2.1-4.5-3.6-6.3c-1.5-1.8-3.3-3.2-5.4-4.3
			c-2.1-1-4.4-1.6-6.9-1.6h-44.1v38.9h42.6c2.6,0,5.1-0.5,7.4-1.5c2.3-1,4.3-2.3,5.9-4.1c1.7-1.7,3-3.8,3.9-6.1
			C604.3,201.5,604.8,199,604.8,196.3z"/>
		<path class="st0" d="M656.1,239.8V92.2h28.7v147.5H656.1z"/>
		<path class="st0" d="M825.9,117.4h-47.2v122.4h-28.5V117.4h-47.2V92.2h122.8V117.4z"/>
		<path class="st0" d="M946.6,214.6v25.1H844.2V92.2h100.6v25.1h-71.9v35.5H935v23.3h-62.1v38.4H946.6z"/>
		<path class="st0" d="M969,239.8V92.2h28.7v122.4h75.2v25.1H969z"/>
	</g>
</g>
</svg>
