<?xml version="1.0" encoding="utf-8"?>
<!-- Generator: Adobe Illustrator 21.1.0, SVG Export Plug-In . SVG Version: 6.00 Build 0)  -->
<svg version="1.1" id="Capa_1" xmlns="http://www.w3.org/2000/svg" xmlns:xlink="http://www.w3.org/1999/xlink" x="0px" y="0px"
	 viewBox="0 0 200 200" style="enable-background:new 0 0 200 200;" xml:space="preserve">
<style type="text/css">
	.st0{fill:#FFFFFF;}
</style>
<path class="st0" d="M155.1,12.8c-28.7-6.1-68.8,8.7-101.9,40.4c-30,28.7-46.5,63.7-45.6,91.4C-7.6,109.1,0.1,64.9,30.2,33.4
	C64.5-2.3,116.7-9.8,155.1,12.8z M190.4,50.9c4,28.6-12.5,67.2-45,98.3c-30.2,28.8-66.1,43.7-94,41.5c37.6,18.2,86,9.6,118.3-24.2
	C201.2,133.7,208.2,87.1,190.4,50.9z M176.9,26.3c-8.3-8.8-31.9-1.1-59.8,17.7c15.1-8.4,27-11.1,31.7-6.1
	c8.7,9.3-10.6,41.4-43.1,71.9s-65.9,47.7-74.6,38.4c-3.9-4.1-2.2-12.8,3.7-23.8c-15.1,22.1-21.1,40.5-13.9,48.1
	c12.1,12.8,56.8-9.5,100-49.9C163.9,82.2,189,39.1,176.9,26.3z"/>
</svg>
