<?xml version="1.0" encoding="utf-8"?>
<!-- Generator: Adobe Illustrator 21.1.0, SVG Export Plug-In . SVG Version: 6.00 Build 0)  -->
<svg version="1.1" id="Capa_1" xmlns="http://www.w3.org/2000/svg" xmlns:xlink="http://www.w3.org/1999/xlink" x="0px" y="0px"
	 viewBox="0 0 74 74" style="enable-background:new 0 0 74 74;" xml:space="preserve">
<style type="text/css">
	.st0{fill:url(#SVGID_1_);}
</style>
<title>Artboard 8</title>
<linearGradient id="SVGID_1_" gradientUnits="userSpaceOnUse" x1="0" y1="37" x2="74" y2="37">
	<stop  offset="0" style="stop-color:#06B5FE"/>
	<stop  offset="1" style="stop-color:#00D2FF"/>
</linearGradient>
<path class="st0" d="M63.3,2.3v7.8c0,1.2-1.1,2.3-2.4,2.3c-1.3,0-2.4-1-2.4-2.3V8.3C34.9,32.3,8.7,40.2,7.6,40.5
	c-0.2,0.1-0.5,0.1-0.7,0.1c-1,0-2-0.6-2.3-1.6c-0.4-1.2,0.3-2.5,1.6-2.8c0.3-0.1,26.5-8.1,49.5-31.7h-3.1c-1.3,0-2.4-1-2.4-2.3
	S51.1,0,52.5,0h8.4c0.1,0,0.2,0,0.3,0c0,0,0.1,0,0.1,0C62.5,0.3,63.3,1.2,63.3,2.3z M13.5,71.5h-3.4V59.6l-6.7,0v11.9H0V59.6
	c0-2,1.5-3.6,3.4-3.6h6.7c1.9,0,3.4,1.6,3.4,3.6V71.5z M33.6,71.5h-3.4V45.1l-6.7,0v26.4h-3.4V45.1c0-2,1.5-3.6,3.4-3.6h6.7
	c1.9,0,3.4,1.6,3.4,3.6V71.5z M53.8,71.5h-3.4V37.9l-6.7,0l0,33.6h-3.4V37.9c0-2,1.5-3.6,3.4-3.6h6.7c1.9,0,3.4,1.6,3.4,3.6V71.5z
	 M74,71.5h-3.4v-48h-6.7l0,48h-3.4v-48c0-2,1.5-3.6,3.4-3.6h6.7c1.9,0,3.4,1.6,3.4,3.6V71.5z M0,70.4h74V74H0V70.4z"/>
</svg>
