<?xml version="1.0" standalone="no"?>
<!DOCTYPE svg PUBLIC "-//W3C//DTD SVG 20010904//EN"
 "http://www.w3.org/TR/2001/REC-SVG-20010904/DTD/svg10.dtd">
<svg version="1.0" xmlns="http://www.w3.org/2000/svg"
 width="260.000000pt" height="260.000000pt" viewBox="0 0 260.000000 260.000000"
 preserveAspectRatio="xMidYMid meet">
<metadata>
Created by potrace 1.11, written by Peter Selinger 2001-2013
</metadata>
<g transform="translate(0.000000,260.000000) scale(0.100000,-0.100000)"
fill="#000000" stroke="none">
<path d="M1250 2597 c-3 -3 -27 -8 -55 -11 -283 -37 -560 -179 -780 -400 -212
-214 -332 -435 -394 -731 -15 -72 -19 -124 -16 -265 1 -96 5 -186 8 -200 29
-116 48 -182 66 -225 l20 -50 0 61 c1 87 27 224 62 329 197 584 785 1141 1374
1300 128 35 173 40 326 40 156 0 156 2 8 63 -150 62 -256 83 -444 88 -94 3
-173 3 -175 1z"/>
<path d="M2064 2296 c-65 -15 -168 -54 -249 -93 -68 -34 -256 -146 -251 -150
1 -2 32 10 67 26 69 33 167 61 210 61 71 0 119 -45 119 -112 0 -212 -346 -667
-770 -1011 -121 -99 -104 -86 -198 -151 -304 -209 -551 -279 -601 -170 -21 46
-4 172 29 219 9 13 20 45 16 45 -10 0 -87 -134 -129 -220 -59 -125 -76 -184
-74 -267 2 -85 21 -117 85 -145 315 -140 1336 606 1818 1328 210 315 262 553
137 627 -41 24 -135 29 -209 13z"/>
<path d="M2475 1932 c9 -16 9 -171 0 -233 -11 -81 -15 -95 -40 -183 -142 -489
-578 -985 -1085 -1234 -218 -107 -409 -158 -605 -162 l-70 -2 53 -24 c54 -24
196 -67 267 -80 53 -10 346 -11 411 -2 371 54 740 290 955 610 116 174 176
319 225 543 14 65 13 369 -2 450 -16 88 -86 302 -105 319 -9 8 -10 8 -4 -2z"/>
</g>
</svg>
