<?xml version="1.0" encoding="utf-8"?>
<!-- Generator: Adobe Illustrator 21.1.0, SVG Export Plug-In . SVG Version: 6.00 Build 0)  -->
<svg version="1.1" id="Capa_1" xmlns="http://www.w3.org/2000/svg" xmlns:xlink="http://www.w3.org/1999/xlink" x="0px" y="0px"
	 viewBox="0 0 74 74" style="enable-background:new 0 0 74 74;" xml:space="preserve">
<style type="text/css">
	.st0{fill:url(#SVGID_1_);}
	.st1{fill:url(#SVGID_2_);}
	.st2{fill:url(#SVGID_3_);}
	.st3{fill:url(#SVGID_4_);}
	.st4{fill:url(#SVGID_5_);}
	.st5{fill:url(#SVGID_6_);}
	.st6{fill:url(#SVGID_7_);}
	.st7{fill:url(#SVGID_8_);}
	.st8{fill:url(#SVGID_9_);}
</style>
<title>Artboard 8</title>
<g>
	<g>
		<linearGradient id="SVGID_1_" gradientUnits="userSpaceOnUse" x1="0" y1="37" x2="74" y2="37">
			<stop  offset="0" style="stop-color:#06B5FE"/>
			<stop  offset="1" style="stop-color:#00D2FF"/>
		</linearGradient>
		<path class="st0" d="M72.6,24.9c0.8,0,1.4-0.6,1.4-1.3V7.3C74,6.6,73.4,6,72.6,6H1.4C0.6,6,0,6.6,0,7.3v16.2
			c0,0.7,0.6,1.3,1.4,1.3h34.3V33H1.4C0.6,33,0,33.6,0,34.3v16.2c0,0.7,0.6,1.3,1.4,1.3h34.3v2.8c-2.7,0.5-4.8,2.6-5.3,5.3H15.1
			c-0.8,0-1.4,0.6-1.4,1.3s0.6,1.3,1.4,1.3h15.2c0.6,3.1,3.4,5.4,6.7,5.4c3.3,0,6.1-2.3,6.7-5.4h15.2c0.8,0,1.4-0.6,1.4-1.3
			s-0.6-1.3-1.4-1.3H43.7c-0.5-2.6-2.7-4.7-5.3-5.3v-2.8h34.3c0.8,0,1.4-0.6,1.4-1.3V34.3c0-0.7-0.6-1.3-1.4-1.3H38.4v-8.1H72.6z
			 M41.1,61.3c0,2.2-1.8,4-4.1,4s-4.1-1.8-4.1-4c0-2.2,1.8-4,4.1-4S41.1,59,41.1,61.3z M71.3,49.1H2.7V35.7h68.5V49.1z M2.7,8.7
			h68.5v13.5H2.7V8.7z"/>
		<linearGradient id="SVGID_2_" gradientUnits="userSpaceOnUse" x1="5.4815" y1="15.4348" x2="13.7037" y2="15.4348">
			<stop  offset="0" style="stop-color:#06B5FE"/>
			<stop  offset="1" style="stop-color:#00D2FF"/>
		</linearGradient>
		<path class="st1" d="M9.6,11.4c-2.3,0-4.1,1.8-4.1,4c0,2.2,1.8,4,4.1,4s4.1-1.8,4.1-4S11.9,11.4,9.6,11.4z M9.6,16.8
			c-0.8,0-1.4-0.6-1.4-1.3c0-0.7,0.6-1.3,1.4-1.3s1.4,0.6,1.4,1.3C11,16.2,10.3,16.8,9.6,16.8z"/>
		<linearGradient id="SVGID_3_" gradientUnits="userSpaceOnUse" x1="43.8515" y1="15.4346" x2="52.0744" y2="15.4346">
			<stop  offset="0" style="stop-color:#06B5FE"/>
			<stop  offset="1" style="stop-color:#00D2FF"/>
		</linearGradient>
		<path class="st2" d="M45.2,19.5c0.4,0,0.7-0.1,1-0.4l5.5-5.4c0.5-0.5,0.5-1.4,0-1.9c-0.5-0.5-1.4-0.5-1.9,0l-5.5,5.4
			c-0.5,0.5-0.5,1.4,0,1.9C44.5,19.3,44.9,19.5,45.2,19.5z"/>
		<linearGradient id="SVGID_4_" gradientUnits="userSpaceOnUse" x1="52.0737" y1="15.4346" x2="60.2966" y2="15.4346">
			<stop  offset="0" style="stop-color:#06B5FE"/>
			<stop  offset="1" style="stop-color:#00D2FF"/>
		</linearGradient>
		<path class="st3" d="M52.5,19.1c0.3,0.3,0.6,0.4,1,0.4c0.4,0,0.7-0.1,1-0.4l5.5-5.4c0.5-0.5,0.5-1.4,0-1.9c-0.5-0.5-1.4-0.5-1.9,0
			l-5.5,5.4C51.9,17.7,51.9,18.6,52.5,19.1z"/>
		<linearGradient id="SVGID_5_" gradientUnits="userSpaceOnUse" x1="60.296" y1="15.4346" x2="68.5189" y2="15.4346">
			<stop  offset="0" style="stop-color:#06B5FE"/>
			<stop  offset="1" style="stop-color:#00D2FF"/>
		</linearGradient>
		<path class="st4" d="M60.7,19.1c0.3,0.3,0.6,0.4,1,0.4c0.4,0,0.7-0.1,1-0.4l5.5-5.4c0.5-0.5,0.5-1.4,0-1.9c-0.5-0.5-1.4-0.5-1.9,0
			l-5.5,5.4C60.2,17.7,60.2,18.6,60.7,19.1z"/>
		<linearGradient id="SVGID_6_" gradientUnits="userSpaceOnUse" x1="5.4815" y1="42.3913" x2="13.7037" y2="42.3913">
			<stop  offset="0" style="stop-color:#06B5FE"/>
			<stop  offset="1" style="stop-color:#00D2FF"/>
		</linearGradient>
		<path class="st5" d="M9.6,38.3c-2.3,0-4.1,1.8-4.1,4c0,2.2,1.8,4,4.1,4s4.1-1.8,4.1-4C13.7,40.2,11.9,38.3,9.6,38.3z M9.6,43.7
			c-0.8,0-1.4-0.6-1.4-1.3c0-0.7,0.6-1.3,1.4-1.3s1.4,0.6,1.4,1.3C11,43.1,10.3,43.7,9.6,43.7z"/>
		<linearGradient id="SVGID_7_" gradientUnits="userSpaceOnUse" x1="43.8515" y1="42.3911" x2="52.0744" y2="42.3911">
			<stop  offset="0" style="stop-color:#06B5FE"/>
			<stop  offset="1" style="stop-color:#00D2FF"/>
		</linearGradient>
		<path class="st6" d="M45.2,46.4c0.4,0,0.7-0.1,1-0.4l5.5-5.4c0.5-0.5,0.5-1.4,0-1.9c-0.5-0.5-1.4-0.5-1.9,0l-5.5,5.4
			c-0.5,0.5-0.5,1.4,0,1.9C44.5,46.3,44.9,46.4,45.2,46.4z"/>
		<linearGradient id="SVGID_8_" gradientUnits="userSpaceOnUse" x1="52.0737" y1="42.3911" x2="60.2966" y2="42.3911">
			<stop  offset="0" style="stop-color:#06B5FE"/>
			<stop  offset="1" style="stop-color:#00D2FF"/>
		</linearGradient>
		<path class="st7" d="M52.5,46c0.3,0.3,0.6,0.4,1,0.4c0.4,0,0.7-0.1,1-0.4l5.5-5.4c0.5-0.5,0.5-1.4,0-1.9c-0.5-0.5-1.4-0.5-1.9,0
			l-5.5,5.4C51.9,44.7,51.9,45.5,52.5,46z"/>
		<linearGradient id="SVGID_9_" gradientUnits="userSpaceOnUse" x1="60.296" y1="42.3911" x2="68.5189" y2="42.3911">
			<stop  offset="0" style="stop-color:#06B5FE"/>
			<stop  offset="1" style="stop-color:#00D2FF"/>
		</linearGradient>
		<path class="st8" d="M60.7,46c0.3,0.3,0.6,0.4,1,0.4c0.4,0,0.7-0.1,1-0.4l5.5-5.4c0.5-0.5,0.5-1.4,0-1.9c-0.5-0.5-1.4-0.5-1.9,0
			l-5.5,5.4C60.2,44.7,60.2,45.5,60.7,46z"/>
	</g>
</g>
</svg>
